<svg xmlns="http://www.w3.org/2000/svg" viewBox="0 0 51.9 81.45"><defs><style>.cls-1{fill:#1c5f30;}</style></defs><g id="Layer_2" data-name="Layer 2"><g id="Layer_1-2" data-name="Layer 1"><path class="cls-1" d="M0,40.72V81.45H14.44V54.17l6.3.08c10.56.15,18.62-3,24.77-9.65,4.71-5.09,6.38-9.42,6.38-16.72C52,19.07,50.3,14.66,44.52,8.81c-6.84-7-10.71-8-29.86-8.51L0,0ZM25.53,11.47c7.52,3.42,11.93,11.7,10.18,19.15C34.64,35,29.63,41,25.53,43a19.2,19.2,0,0,1-6.84,1.22H14.44V10h4A20.88,20.88,0,0,1,25.53,11.47Z"/></g></g></svg>